<?xml version="1.0" encoding="UTF-8"?>
<svg width="26px" height="24px" viewBox="0 0 26 24" version="1.1" xmlns="http://www.w3.org/2000/svg" xmlns:xlink="http://www.w3.org/1999/xlink">
    <!-- Generator: Sketch 54.1 (76490) - https://sketchapp.com -->
    <title>Untitled</title>
    <desc>Created with Sketch.</desc>
    <g id="Page-1" stroke="none" stroke-width="1" fill="none" fill-rule="evenodd">
        <g id="outline-input-24px">
            <g id="Group">
                <polygon id="Path" points="0 0 24 0 24 24 0 24"></polygon>
                <polygon id="Path" opacity="0.87" points="0 0 24 0 24 24 0 24"></polygon>
            </g>
            <path d="M20,18.01 L24,14.01 L20,10.01 L20,13.01 L10,13.01 L10,15.01 L20,15.01 L20,18.01 Z M20,18.01 L24,14.01 L20,10.01 L20,13.01 L10,13.01 L10,15.01 L20,15.01 L20,18.01 Z" id="Shape" fill="#000000" fill-rule="nonzero"></path>
        </g>
        <g id="outline-restore_page-24px">
            <polygon id="Path" points="0 0 24 0 24 24 0 24"></polygon>
            <path d="M12,2 L4,2 C2.9,2 2.01,2.9 2.01,4 L2,20 C2,21.1 2.89,22 3.99,22 L16,22 C17.1,22 18,21.1 18,20 L18,8 L12,2 Z M16,20 L4,20 L4,4 L11.17,4 L16,8.83 L16,20 Z M16,11 L18,11 L18,17 L16,17 L16,11 Z" id="Shape" fill="#000000" fill-rule="nonzero"></path>
        </g>
    </g>
</svg>